<?xml version="1.0"?>
<svg xmlns="http://www.w3.org/2000/svg" height="512px" viewBox="0 -36 512 512" width="512px"><g><path d="m280 209.886719-4.945312-9.886719h-38.109376l-4.945312 9.886719v28.167969l15.574219 30.273437c.59375 1.160156.898437 2.441406.890625 3.734375l-.402344 47.53125c2.617188.261719 5.257812.40625 7.9375.40625 2.703125 0 5.367188-.144531 8-.40625v-47.59375c0-1.238281.289062-2.472656.839844-3.574219l15.160156-30.3125zm0 0" data-original="#000000" class="active-path" data-old_color="#000000" fill="#285D99"/><path d="m256 160c-44.113281 0-80 35.886719-80 80 0 35.785156 23.625 66.152344 56.097656 76.34375l.351563-42.441406-15.5625-30.238282c-.582031-1.136718-.886719-2.390624-.886719-3.664062v-32c0-1.238281.289062-2.472656.839844-3.574219l8-16c1.359375-2.714843 4.128906-4.425781 7.160156-4.425781h48c3.03125 0 5.800781 1.710938 7.160156 4.425781l8 16c.550782 1.101563.839844 2.335938.839844 3.574219v32c0 1.238281-.289062 2.472656-.839844 3.574219l-15.160156 30.3125v42.417969c32.414062-10.226563 56-40.5625 56-76.3125 0-44.105469-35.886719-79.992188-80-79.992188zm0 0" data-original="#000000" class="active-path" data-old_color="#000000" fill="#285D99"/><path d="m371.433594 220.816406-5.9375-22.167968c-.558594-2.089844-.25-4.3125.847656-6.167969l5.113281-8.558594-9.265625-16.074219-10.054687.152344c-2.335938-.113281-4.242188-.824219-5.777344-2.34375l-16.222656-16.214844c-1.527344-1.53125-2.375-3.617187-2.34375-5.785156l.144531-9.832031-16.058594-9.273438-8.566406 5.113281c-1.855469 1.105469-4.089844 1.398438-6.167969.847657l-22.160156-5.9375c-2.089844-.558594-3.855469-1.933594-4.914063-3.820313l-4.894531-8.769531h-18.542969l-4.898437 8.769531c-1.054687 1.878906-2.832031 3.253906-4.910156 3.820313l-22.167969 5.9375c-2.070312.542969-4.3125.257812-6.167969-.855469l-8.558593-5.113281-16.066407 9.273437.136719 10.046875c.03125 2.167969-.816406 4.242188-2.34375 5.777344l-16.222656 16.214844c-1.503906 1.503906-3.539063 2.34375-5.65625 2.34375-.042969 0-.082032 0-.113282 0l-9.847656-.144531-9.273437 16.066406 5.113281 8.558594c1.113281 1.855468 1.421875 4.089843.855469 6.167968l-5.9375 22.160156c-.558594 2.089844-1.933594 3.855469-3.820313 4.914063l-8.769531 4.894531v18.542969l8.769531 4.898437c1.878906 1.054688 3.253906 2.832032 3.820313 4.910157l5.9375 22.160156c.558593 2.085937.25 4.3125-.855469 6.167969l-5.113281 8.558594 9.273437 16.066406 10.054688-.121094c2.328125-.070312 4.234375.824219 5.769531 2.34375l16.222656 16.222656c1.519531 1.53125 2.367188 3.609375 2.335938 5.769532l-.144531 9.839843 16.066406 9.273438 8.566406-5.113281c1.855469-1.105469 4.097656-1.398438 6.167969-.847657l22.152343 5.925781c2.097657.554688 3.863282 1.9375 4.921876 3.824219l4.902343 8.777344h18.535157l4.898437-8.769531c1.054687-1.878906 2.832031-3.253906 4.910156-3.820313l22.160157-5.9375c2.089843-.535156 4.3125-.25 6.167968.847657l8.566406 5.113281 16.066407-9.273438-.136719-10.046875c-.03125-2.160156.816406-4.242187 2.34375-5.769531l16.207031-16.222656c1.539063-1.519531 3.519531-2.351563 5.785157-2.34375l9.839843.144531 9.273438-16.066406-5.113281-8.558594c-1.105469-1.847656-1.414063-4.082031-.847657-6.167969l5.925781-22.160156c.554688-2.089844 1.9375-3.855469 3.824219-4.914063l8.777344-4.902343v-18.535157l-8.769531-4.898437c-1.878906-1.0625-3.253906-2.839844-3.8125-4.917969zm-115.433594 115.183594c-52.9375 0-96-43.0625-96-96s43.0625-96 96-96 96 43.0625 96 96-43.0625 96-96 96zm0 0" data-original="#000000" class="active-path" data-old_color="#000000" fill="#285D99"/><path d="m0 80v352c0 4.425781 3.574219 8 8 8h216c-8.824219 0-16-7.175781-16-16v-40h16v40h64v-40h16v40c0 8.824219-7.175781 16-16 16h216c4.425781 0 8-3.574219 8-8v-352zm264 336h-16v-24h16zm136.015625-162.144531c0 2.898437-1.566406 5.570312-4.09375 6.984375l-9.921875 5.542968-4.175781 15.625 5.785156 9.695313c1.488281 2.488281 1.503906 5.585937.054687 8.097656l-13.976562 24.199219c-1.457031 2.503906-4 3.894531-7.046875 4l-11.160156-.167969-11.441407 11.449219.160157 11.375c.039062 2.894531-1.496094 5.582031-4 7.039062l-24.183594 13.960938c-2.511719 1.449219-5.609375 1.433594-8.09375-.054688l-9.707031-5.785156-15.621094 4.183594-5.539062 9.910156c-1.414063 2.523438-4.085938 4.097656-6.984376 4.097656h-27.925781c-2.898437 0-5.570312-1.566406-6.984375-4.097656l-5.542968-9.917968-15.625-4.175782-9.703126 5.785156c-2.488281 1.488282-5.578124 1.503907-8.097656.054688l-24.191406-13.96875c-2.503906-1.457031-4.039062-4.144531-4-7.039062l.160156-11.160157-11.441406-11.449219-11.375.160157c-2.9375-.09375-5.589844-1.488281-7.039062-4l-13.96875-24.183594c-1.449219-2.503906-1.433594-5.609375.0625-8.105469l5.785156-9.695312-4.183594-15.621094-9.910156-5.539062c-2.523438-1.414063-4.097656-4.085938-4.097656-6.984376v-27.925781c0-2.898437 1.558593-5.570312 4.097656-6.984375l9.910156-5.542968 4.183594-15.625-5.785156-9.695313c-1.496094-2.496094-1.503907-5.59375-.0625-8.105469l13.96875-24.183594c1.429687-2.480468 4.078124-4 6.925781-4h.113281l11.167969.160157 11.449219-11.441407-.167969-11.367187c-.039063-2.894531 1.496093-5.589844 4-7.046875l24.191406-13.96875c2.511719-1.449219 5.601563-1.441406 8.105469.0625l9.6875 5.785156 15.628906-4.183594 5.539062-9.910156c1.414063-2.523437 4.085938-4.097656 6.984376-4.097656h27.925781c2.898437 0 5.570312 1.558594 6.984375 4.097656l5.542968 9.910156 15.625 4.183594 9.703126-5.785156c2.496093-1.484375 5.601562-1.496094 8.097656-.054688l24.183594 13.96875c2.503906 1.457032 4.039062 4.152344 4 7.046876l-.167969 11.152343 11.449219 11.449219 11.367187-.167969c3.144531.136719 5.589844 1.496094 7.046875 4l13.960938 24.191407c1.449218 2.511718 1.421874 5.609374-.054688 8.097656l-5.785156 9.695312 4.183594 15.628906 9.910156 5.539063c2.523437 1.414063 4.097656 4.085937 4.097656 6.984375v27.917969zm0 0" data-original="#000000" class="active-path" data-old_color="#000000" fill="#285D99"/><path d="m512 64v-56c0-4.425781-3.574219-8-8-8h-496c-4.425781 0-8 3.574219-8 8v56zm-96-32h48v16h-48zm-304 0h16v16h-16zm-32 0h16v16h-16zm-32 0h16v16h-16zm0 0" data-original="#000000" class="active-path" data-old_color="#000000" fill="#285D99"/></g> </svg>
