<?xml version="1.0"?>
<svg xmlns="http://www.w3.org/2000/svg" height="512px" viewBox="-34 0 408 408" width="512px" class=""><g><path d="m0 340h271v-340h-271zm118.378906-266h-23.199218c-3.3125 0-6-2.6875-6-6s2.6875-6 6-6h81.089843c3.3125 0 6 2.6875 6 6s-2.6875 6-6 6h-29.023437c6.027344 6 10.171875 13 11.480468 22h17.539063c3.3125 0 6 2.6875 6 6s-2.6875 6-6 6h-17.539063c-2.855468 20.085938-20.058593 35.007812-40.347656 35h-8.117187l47.03125 44.5c2.40625 2.300781 2.515625 6.109375.238281 8.539062-1.09375 1.15625-2.601562 1.832032-4.191406 1.875-1.59375.042969-3.136719-.550781-4.289063-1.644531l-58-54.820312c-1.785156-1.703125-2.359375-4.316407-1.453125-6.613281.90625-2.292969 3.109375-3.8125 5.578125-3.835938h23.199219c13.621094-.109375 25.332031-9.675781 28.15625-23h-51.355469c-3.316406 0-6-2.6875-6-6s2.683594-6 6-6h51.359375c-2.765625-13-14.335937-22-28.15625-22zm-90.066406 163h77.699219c3.3125 0 6 2.6875 6 6s-2.6875 6-6 6h-77.699219c-3.316406 0-6-2.6875-6-6s2.683594-6 6-6zm0 34h214.816406c3.316406 0 6 2.6875 6 6s-2.683594 6-6 6h-214.816406c-3.316406 0-6-2.6875-6-6s2.683594-6 6-6zm0 34h214.816406c3.316406 0 6 2.6875 6 6s-2.683594 6-6 6h-214.816406c-3.316406 0-6-2.6875-6-6s2.683594-6 6-6zm0 0" data-original="#000000" class="active-path" data-old_color="#000000" fill="#285D99"/><path d="m306 34h-23v311.6875c0 3.3125-2.277344 6.3125-5.589844 6.3125h-243.410156v22h272zm0 0" data-original="#000000" class="active-path" data-old_color="#000000" fill="#285D99"/><path d="m340 68h-22v311.96875c-.144531 3.378906-2.929688 6.039062-6.3125 6.03125h-242.6875v22h271zm0 0" data-original="#000000" class="active-path" data-old_color="#000000" fill="#285D99"/></g> </svg>
