<?xml version="1.0"?>
<svg xmlns="http://www.w3.org/2000/svg" height="512px" viewBox="0 0 512 512" width="512px"><g><path d="m76.800781 179.199219c0 14.140625 11.460938 25.601562 25.597657 25.601562 14.140624 0 25.601562-11.460937 25.601562-25.601562v-4.351563c2.574219-.90625 5.09375-1.953125 7.550781-3.140625l3.039063 3.054688c4.78125 4.84375 11.304687 7.5625 18.109375 7.554687 10.347656-.023437 19.667969-6.277344 23.609375-15.847656 3.945312-9.566406 1.738281-20.570312-5.589844-27.878906l-3.054688-3.039063c1.199219-2.457031 2.265626-4.976562 3.183594-7.550781h4.351563c14.140625 0 25.601562-11.460938 25.601562-25.601562 0-14.136719-11.460937-25.597657-25.601562-25.597657h-4.351563c-.90625-2.574219-1.953125-5.097656-3.140625-7.554687l3.054688-3.035156c7.328125-7.308594 9.535156-18.3125 5.589843-27.882813-3.945312-9.566406-13.261718-15.820313-23.609374-15.84375-6.804688-.007813-13.328126 2.710937-18.109376 7.554687l-3.039062 3.054688c-2.46875-1.1875-5.003906-2.238281-7.59375-3.140625v-4.351563c0-14.140624-11.460938-25.601562-25.601562-25.601562-14.136719 0-25.597657 11.460938-25.597657 25.601562v4.351563c-2.574219.902344-5.097656 1.953125-7.554687 3.140625l-3.035156-3.054688c-4.78125-4.84375-11.304688-7.5625-18.109376-7.554687-10.355468.007813-19.691406 6.253906-23.644531 15.824219-3.957031 9.574218-1.753906 20.585937 5.582031 27.902344l3.054688 3.035156c-1.1875 2.460937-2.234375 4.980468-3.140625 7.554687h-4.351563c-14.140624 0-25.601562 11.460938-25.601562 25.597657 0 14.140624 11.460938 25.601562 25.601562 25.601562h4.351563c.902344 2.574219 1.953125 5.09375 3.140625 7.550781l-3.054688 3.039063c-4.820312 4.792968-7.53125 11.308594-7.542968 18.105468-.011719 6.796876 2.679687 13.316407 7.480468 18.128907 4.730469 4.917969 11.304688 7.632812 18.125 7.492187 6.804688.007813 13.328126-2.710937 18.109376-7.554687l3.035156-3.054688c2.460937 1.1875 4.980468 2.234375 7.554687 3.140625zm-2.363281-24.011719c-1.875-.996094-3.964844-1.515625-6.085938-1.519531-3.367187-.003907-6.597656 1.34375-8.96875 3.738281l-5.273437 5.308594c-1.589844 1.613281-3.765625 2.519531-6.03125 2.515625-2.277344.09375-4.480469-.816407-6.027344-2.492188-3.328125-3.332031-3.328125-8.734375 0-12.066406l5.308594-5.273437c3.996094-3.972657 4.894531-10.105469 2.210937-15.058594-1.757812-3.308594-3.183593-6.777344-4.265624-10.359375-1.625-5.371094-6.574219-9.046875-12.1875-9.046875h-7.515626c-4.714843 0-8.535156-3.820313-8.535156-8.535156 0-4.710938 3.820313-8.53125 8.535156-8.53125h7.535157c5.601562-.019532 10.535156-3.695313 12.148437-9.0625 1.082032-3.585938 2.511719-7.058594 4.269532-10.367188 2.675781-4.957031 1.769531-11.082031-2.21875-15.054688l-5.265626-5.273437c-3.332031-3.332031-3.332031-8.734375 0-12.066406 1.621094-1.566407 3.777344-2.457031 6.03125-2.492188 2.269532-.003906 4.441407.90625 6.035157 2.519531l5.273437 5.308594c3.976563 3.984375 10.105469 4.882813 15.058594 2.207032 3.308594-1.753907 6.777344-3.183594 10.359375-4.265626 5.375-1.628906 9.046875-6.585937 9.039063-12.203124v-7.515626c0-4.714843 3.820312-8.535156 8.53125-8.535156 4.714843 0 8.535156 3.820313 8.535156 8.535156v7.535157c.011718 5.609375 3.695312 10.554687 9.070312 12.167969 3.585938 1.082031 7.054688 2.507812 10.359375 4.265624 4.953125 2.679688 11.082031 1.777344 15.054688-2.21875l5.273437-5.308593c1.589844-1.613281 3.765625-2.519531 6.03125-2.515625 4.714844 0 8.535156 3.820312 8.535156 8.53125-.007812 2.261718-.914062 4.429687-2.519531 6.027344l-5.308593 5.273437c-3.992188 3.972656-4.894532 10.105469-2.207032 15.058594 1.753906 3.308593 3.183594 6.777343 4.265625 10.359375 1.609375 5.390625 6.566407 9.085937 12.195313 9.089844h7.515625c4.714843 0 8.535156 3.820312 8.535156 8.53125 0 4.714843-3.820313 8.535156-8.535156 8.535156h-7.535157c-5.609374.011718-10.554687 3.695312-12.167968 9.070312-1.09375 3.585938-2.539063 7.054688-4.308594 10.359375-2.675781 4.957031-1.773438 11.082031 2.21875 15.054688l5.308594 5.273437c2.425781 2.433594 3.15625 6.082032 1.851562 9.261719-1.304687 3.179687-4.390625 5.265625-7.824218 5.292969-2.269532.003906-4.441407-.902344-6.035157-2.515625l-5.273437-5.308594c-3.976563-3.992187-10.105469-4.890625-15.0625-2.210937-3.304688 1.757812-6.773438 3.1875-10.359375 4.269531-5.390625 1.613281-9.082031 6.574219-9.078125 12.203125v7.515625c0 4.714843-3.820313 8.535156-8.535156 8.535156-4.710938 0-8.53125-3.820313-8.53125-8.535156v-7.535157c-.011719-5.609374-3.691407-10.550781-9.0625-12.167968-3.589844-1.085938-7.0625-2.523438-10.367188-4.292969zm0 0" data-original="#000000" class="active-path" data-old_color="#000000" fill="#FFFFFF"/><path d="m145.066406 102.398438c0-23.5625-19.101562-42.664063-42.667968-42.664063-23.5625 0-42.664063 19.101563-42.664063 42.664063 0 23.566406 19.101563 42.667968 42.664063 42.667968 23.554687-.027344 42.640624-19.113281 42.667968-42.667968zm-68.265625 0c0-14.136719 11.460938-25.597657 25.597657-25.597657 14.140624 0 25.601562 11.460938 25.601562 25.597657 0 14.140624-11.460938 25.601562-25.601562 25.601562-14.136719 0-25.597657-11.460938-25.597657-25.601562zm0 0" data-original="#000000" class="active-path" data-old_color="#000000" fill="#FFFFFF"/><path d="m486.398438 76.800781h-4.351563c-.902344-2.574219-1.953125-5.097656-3.140625-7.554687l3.054688-3.035156c7.328124-7.308594 9.535156-18.3125 5.589843-27.882813-3.941406-9.566406-13.261719-15.820313-23.609375-15.84375h-.042968c-6.804688-.007813-13.328126 2.710937-18.109376 7.554687l-3.035156 3.054688c-2.460937-1.1875-4.980468-2.234375-7.554687-3.140625v-4.351563c0-14.140624-11.460938-25.601562-25.597657-25.601562-14.140624 0-25.601562 11.460938-25.601562 25.601562v4.351563c-2.574219.902344-5.09375 1.953125-7.550781 3.140625l-3.039063-3.054688c-4.78125-4.84375-11.304687-7.5625-18.109375-7.554687h-.042969c-10.347656.023437-19.664062 6.277344-23.609374 15.84375-3.945313 9.570313-1.738282 20.574219 5.589843 27.882813l3.054688 3.035156c-1.1875 2.460937-2.234375 4.980468-3.140625 7.554687h-4.351563c-14.140625 0-25.601562 11.460938-25.601562 25.597657 0 14.140624 11.460937 25.601562 25.601562 25.601562h4.367188c.90625 2.574219 1.953125 5.09375 3.140625 7.550781l-3.054688 3.039063c-7.328125 7.308594-9.53125 18.3125-5.589844 27.878906 3.945313 9.570312 13.261719 15.824219 23.613282 15.847656h.042968c6.804688.007813 13.328126-2.710937 18.105469-7.554687l3.039063-3.054688c2.453125 1.1875 4.96875 2.234375 7.535156 3.140625v4.351563c0 14.140625 11.460938 25.601562 25.601562 25.601562 14.136719 0 25.597657-11.460937 25.597657-25.601562v-4.351563c2.574219-.90625 5.097656-1.953125 7.554687-3.140625l3.035156 3.054688c4.78125 4.84375 11.304688 7.5625 18.109376 7.554687h.042968c10.347656-.023437 19.667969-6.277344 23.609375-15.847656 3.945313-9.566406 1.738281-20.570312-5.589843-27.878906l-3.054688-3.039063c1.1875-2.457031 2.234375-4.976562 3.140625-7.550781h4.351563c14.140624 0 25.601562-11.460938 25.601562-25.601562 0-14.136719-11.460938-25.597657-25.601562-25.597657zm8.535156 25.597657c0 4.714843-3.820313 8.535156-8.535156 8.535156h-7.535157c-5.609375.011718-10.554687 3.695312-12.167969 9.070312-1.082031 3.585938-2.507812 7.054688-4.265624 10.359375-2.675782 4.957031-1.773438 11.082031 2.21875 15.054688l5.308593 5.273437c2.425781 2.433594 3.15625 6.082032 1.851563 9.261719-1.304688 3.179687-4.390625 5.265625-7.824219 5.292969-2.269531.003906-4.441406-.902344-6.035156-2.515625l-5.273438-5.308594c-3.976562-3.992187-10.105469-4.890625-15.0625-2.210937-3.304687 1.757812-6.773437 3.1875-10.359375 4.269531-5.40625 1.597656-9.117187 6.5625-9.121094 12.203125v7.515625c0 4.714843-3.820312 8.535156-8.53125 8.535156-4.714843 0-8.535156-3.820313-8.535156-8.535156v-7.535157c-.011718-5.609374-3.691406-10.550781-9.0625-12.167968-3.589844-1.09375-7.0625-2.535156-10.367187-4.308594-1.875-.996094-3.964844-1.515625-6.085938-1.519531-3.367187-.003907-6.597656 1.34375-8.96875 3.738281l-5.273437 5.308594c-1.589844 1.613281-3.765625 2.519531-6.03125 2.515625-4.714844 0-8.535156-3.820313-8.535156-8.53125.019531-2.269531.941406-4.4375 2.5625-6.027344l5.304687-5.273437c3.996094-3.972657 4.898437-10.105469 2.210937-15.058594-1.753906-3.308594-3.183593-6.777344-4.265624-10.359375-1.628907-5.390625-6.605469-9.070313-12.238282-9.046875h-7.515625c-4.714843 0-8.535156-3.820313-8.535156-8.535156 0-4.710938 3.820313-8.53125 8.535156-8.53125h7.535157c5.609374-.011719 10.550781-3.691407 12.167968-9.0625 1.078125-3.585938 2.507813-7.058594 4.265625-10.367188 2.675781-4.957031 1.773438-11.082031-2.21875-15.054688l-5.308593-5.273437c-2.425782-2.433594-3.15625-6.085937-1.851563-9.261719 1.304687-3.179687 4.390625-5.265625 7.828125-5.296875 2.265625-.003906 4.4375.90625 6.03125 2.519531l5.273438 5.308594c3.980468 3.984375 10.105468 4.882813 15.0625 2.207032 3.304687-1.753907 6.773437-3.183594 10.359374-4.265626 5.40625-1.597656 9.117188-6.5625 9.121094-12.203124v-7.515626c0-4.714843 3.820313-8.535156 8.535156-8.535156 4.710938 0 8.53125 3.820313 8.53125 8.535156v7.535157c.011719 5.609375 3.695313 10.554687 9.070313 12.167969 3.585937 1.082031 7.054687 2.507812 10.359375 4.265624 4.957031 2.679688 11.085938 1.777344 15.054688-2.21875l5.273437-5.308593c1.589844-1.613281 3.765625-2.519531 6.03125-2.515625 4.714844 0 8.535156 3.820312 8.535156 8.53125-.019531 2.269531-.941406 4.4375-2.558593 6.027344l-5.308594 5.273437c-3.996094 3.972656-4.894532 10.105469-2.210938 15.058594 1.753906 3.308593 3.183594 6.777343 4.265625 10.359375 1.617188 5.40625 6.59375 9.105468 12.238281 9.089844h7.515626c4.714843 0 8.535156 3.820312 8.535156 8.53125zm0 0" data-original="#000000" class="active-path" data-old_color="#000000" fill="#FFFFFF"/><path d="m409.601562 59.734375c-23.566406 0-42.667968 19.101563-42.667968 42.664063 0 23.566406 19.101562 42.667968 42.667968 42.667968 23.5625 0 42.664063-19.101562 42.664063-42.667968-.027344-23.550782-19.113281-42.636719-42.664063-42.664063zm0 68.265625c-14.140624 0-25.601562-11.460938-25.601562-25.601562 0-14.136719 11.460938-25.597657 25.601562-25.597657 14.136719 0 25.597657 11.460938 25.597657 25.597657 0 6.792968-2.695313 13.300781-7.496094 18.101562-4.800781 4.804688-11.3125 7.5-18.101563 7.5zm0 0" data-original="#000000" class="active-path" data-old_color="#000000" fill="#FFFFFF"/><path d="m401.066406 293.230469h-18.378906c-2.382812-7.625-5.453125-15.019531-9.175781-22.09375l12.988281-12.902344c6.421875-6.394531 10.039062-15.082031 10.050781-24.144531s-3.585937-17.757813-9.992187-24.167969l-7.679688-7.683594c-6.382812-6.421875-15.074218-10.019531-24.132812-9.992187h-.050782c-9.078124-.011719-17.78125 3.613281-24.164062 10.070312l-12.894531 12.988282c-7.070313-3.722657-14.464844-6.792969-22.09375-9.171876v-18.398437c0-18.851563-15.28125-34.132813-34.132813-34.132813h-10.847656c-18.847656 0-34.132812 15.28125-34.132812 34.132813v18.378906c-7.625 2.382813-15.019532 5.453125-22.089844 9.175781l-12.902344-12.988281c-6.378906-6.457031-15.082031-10.085937-24.160156-10.070312h-.050782c-9.050781-.015625-17.730468 3.585937-24.105468 10.007812l-7.679688 7.683594c-6.417968 6.414063-10.015625 15.117187-10 24.1875.015625 9.074219 3.640625 17.765625 10.074219 24.160156l12.988281 12.894531c-3.722656 7.070313-6.792968 14.464844-9.171875 22.09375h-18.398437c-18.851563 0-34.132813 15.28125-34.132813 34.132813v10.871094c0 18.851562 15.28125 34.132812 34.132813 34.132812h18.378906c2.382812 7.628907 5.453125 15.023438 9.175781 22.09375l-12.988281 12.902344c-6.414062 6.394531-10.027344 15.074219-10.035156 24.132813-.011719 9.054687 3.578125 17.746093 9.976562 24.15625l7.679688 7.679687c6.382812 6.425781 15.074218 10.027344 24.132812 9.992187h.050782c9.078124.015626 17.78125-3.613281 24.164062-10.070312l12.894531-12.984375c7.070313 3.722656 14.464844 6.792969 22.09375 9.171875v18.398438c0 18.851562 15.28125 34.132812 34.132813 34.132812h10.871094c18.851562 0 34.132812-15.28125 34.132812-34.132812v-18.382813c7.628906-2.378906 15.023438-5.449219 22.09375-9.171875l12.902344 12.988281c6.378906 6.457031 15.082031 10.085938 24.15625 10.070313h.054687c9.039063.007812 17.710938-3.59375 24.078125-10.011719l7.679688-7.679687c6.417968-6.414063 10.015625-15.117188 10-24.191407-.015625-9.070312-3.640625-17.765625-10.074219-24.15625l-12.988281-12.894531c3.722656-7.070312 6.792968-14.464844 9.171875-22.09375h18.398437c18.851563 0 34.132813-15.28125 34.132813-34.132812v-10.847657c0-18.851562-15.28125-34.132812-34.132813-34.132812zm17.066406 45.003906c0 9.425781-7.640624 17.066406-17.066406 17.066406h-19.097656c-7.136719.019531-13.414062 4.714844-15.445312 11.554688-2.132813 6.9375-4.921876 13.65625-8.328126 20.0625-3.425781 6.292969-2.296874 14.089843 2.773438 19.148437l13.5 13.398438c3.210938 3.203125 5.019531 7.550781 5.019531 12.085937 0 4.539063-1.808593 8.886719-5.019531 12.089844l-7.679688 7.679687c-3.191406 3.210938-7.539062 5.011719-12.066406 5-4.539062.003907-8.886718-1.8125-12.074218-5.042968l-13.398438-13.515625c-5.058594-5.0625-12.847656-6.1875-19.132812-2.765625-6.40625 3.410156-13.128907 6.199218-20.070313 8.328125-6.835937 2.035156-11.527344 8.3125-11.542969 15.445312v19.097657c0 9.425781-7.640625 17.066406-17.066406 17.066406h-10.875c-9.425781 0-17.066406-7.640625-17.066406-17.066406v-19.097657c-.015625-7.136719-4.710938-13.414062-11.550782-15.445312-6.941406-2.132813-13.664062-4.925781-20.070312-8.335938-2.390625-1.277343-5.050781-1.945312-7.757812-1.945312-4.273438-.003907-8.371094 1.699219-11.382813 4.726562l-13.398437 13.5c-3.191407 3.226563-7.542969 5.042969-12.082032 5.042969-4.53125.011719-8.875-1.789062-12.066406-5l-7.679688-7.679688c-3.207031-3.210937-5.003906-7.558593-4.996093-12.09375.011719-4.535156 1.820312-8.878906 5.035156-12.074218l13.492187-13.414063c5.066407-5.058593 6.191407-12.847656 2.765626-19.132812-3.410157-6.410157-6.199219-13.128907-8.328126-20.070313-2.035156-6.835937-8.3125-11.527344-15.445312-11.546875h-19.097656c-9.425782 0-17.066406-7.640625-17.066406-17.066406v-10.871094c0-9.425781 7.640624-17.066406 17.066406-17.066406h19.097656c7.136719-.015625 13.414062-4.714844 15.445312-11.554687 2.132813-6.9375 4.921876-13.652344 8.328126-20.0625 3.425781-6.289063 2.296874-14.085938-2.773438-19.148438l-13.5-13.394531c-3.21875-3.199219-5.03125-7.542969-5.039062-12.078125-.007813-4.539063 1.789062-8.890625 4.996093-12.097656l7.679688-7.679688c3.195312-3.210938 7.539062-5.011719 12.066406-5 4.539063-.003906 8.886719 1.8125 12.074219 5.042969l13.441406 13.515625c5.058594 5.066406 12.847656 6.191406 19.132812 2.765625 6.40625-3.410157 13.128907-6.199219 20.070313-8.328125 6.835937-2.035156 11.527344-8.3125 11.542969-15.445313v-19.097656c0-9.425781 7.640625-17.066406 17.066406-17.066406h10.875c4.523438 0 8.867188 1.796875 12.066406 4.996093 3.199219 3.203126 5 7.542969 5 12.070313v19.097656c.015625 7.132813 4.710938 13.414063 11.550782 15.445313 6.941406 2.132812 13.664062 4.921875 20.070312 8.335937 6.292969 3.414063 14.082031 2.28125 19.140625-2.78125l13.398437-13.5c3.191407-3.230469 7.542969-5.046875 12.082032-5.042969 4.53125-.011718 8.875 1.789063 12.066406 5l7.679688 7.679688c3.210937 3.203125 5.015624 7.550781 5.015624 12.082031 0 4.535157-1.804687 8.882813-5.015624 12.085938l-13.53125 13.414062c-5.066407 5.054688-6.191407 12.847657-2.765626 19.128907 3.410157 6.410156 6.199219 13.132812 8.328126 20.074218 2.035156 6.835938 8.3125 11.527344 15.445312 11.542969h19.097656c9.425782 0 17.066406 7.640625 17.066406 17.066406zm0 0" data-original="#000000" class="active-path" data-old_color="#000000" fill="#FFFFFF"/><path d="m256 238.933594c-51.839844 0-93.867188 42.023437-93.867188 93.867187 0 51.839844 42.027344 93.867188 93.867188 93.867188s93.867188-42.027344 93.867188-93.867188c-.0625-51.816406-42.050782-93.804687-93.867188-93.867187zm-25.601562 76.800781c0-14.140625 11.464843-25.601563 25.601562-25.601563s25.601562 11.460938 25.601562 25.601563c0 14.136719-11.464843 25.597656-25.601562 25.597656s-25.601562-11.460937-25.601562-25.597656zm73.15625 77.277344c-.910157.714843-1.832032 1.40625-2.761719 2.082031-1.242188.875-2.5 1.730469-3.773438 2.558594-.964843.617187-1.9375 1.210937-2.925781 1.785156-1.324219.75-2.671875 1.449219-4.027344 2.125-1.015625.492188-2.023437 1.007812-3.054687 1.457031-1.417969.625-2.859375 1.179688-4.269531 1.707031-1.03125.386719-2.054688.785157-3.105469 1.128907-1.527344.492187-3.089844.894531-4.648438 1.285156-1.007812.257813-2.007812.554687-3.023437.777344-1.75.367187-3.523438.625-5.289063.855469-.707031.09375-1.398437.238281-2.109375.316406v-25.089844c0-4.710938-3.820312-8.535156-8.53125-8.535156-4.714844 0-8.535156 3.824218-8.535156 8.535156v25.089844c-.707031-.078125-1.398438-.222656-2.097656-.316406-1.777344-.25-3.550782-.503907-5.300782-.855469-1.015624-.222657-2.011718-.511719-3.019531-.777344-1.5625-.390625-3.125-.792969-4.660156-1.285156-1.039063-.34375-2.066406-.742188-3.089844-1.128907-1.449219-.535156-2.890625-1.089843-4.265625-1.707031-1.03125-.449219-2.039062-.964843-3.054687-1.457031-1.355469-.675781-2.703125-1.375-4.027344-2.132812-.992187-.566407-1.964844-1.160157-2.925781-1.777344-1.28125-.808594-2.539063-1.660156-3.773438-2.558594-.933594-.667969-1.855468-1.355469-2.765625-2.074219-1.195312-.9375-2.355469-1.929687-3.496093-2.953125-.855469-.757812-1.707032-1.527344-2.5625-2.335937-.390626-.375-.742188-.796875-1.125-1.179688 11.925781-18.429687 32.734374-29.144531 54.664062-28.152343 21.953125-1.015626 42.789062 9.710937 54.722656 28.160156-.375.386718-.730468.796875-1.117187 1.171875-.851563.808593-1.707031 1.585937-2.558594 2.355469-1.144531.996093-2.304687 1.988281-3.492187 2.925781zm18.175781-20.480469c-9.101563-12.210938-21.753907-21.320312-36.222657-26.078125 12.585938-12.050781 16.578126-30.546875 10.085938-46.714844-6.492188-16.171875-22.167969-26.769531-39.59375-26.769531s-33.101562 10.597656-39.59375 26.769531c-6.492188 16.167969-2.5 34.664063 10.085938 46.714844-14.457032 4.753906-27.097657 13.847656-36.199219 26.042969-19.472657-32.230469-12.707031-73.824219 15.976562-98.21875 28.683594-24.398438 70.828125-24.398438 99.511719 0 28.683594 24.394531 35.449219 65.988281 15.976562 98.21875zm0 0" data-original="#000000" class="active-path" data-old_color="#000000" fill="#FFFFFF"/></g> </svg>
