<?xml version="1.0"?>
<svg xmlns="http://www.w3.org/2000/svg" height="512px" viewBox="-17 0 445 445.673" width="512px" class=""><g><path d="m307.449219 380.625-7.042969 15.851562c-.960938 2.15625-2.882812 3.734376-5.183594 4.257813-2.304687.523437-4.71875-.070313-6.515625-1.597656l-13.183593-11.222657-2.367188 2.011719 22.214844 54.289063 6.128906-12.5625c2.609375-5.296875 8.707031-7.886719 14.332031-6.089844l14.367188 4.652344-20.140625-48.90625zm0 0" data-original="#000000" class="active-path" data-old_color="#000000" fill="#285D99"/><path d="m334.429688 322.847656 11.335937-8.511718-11.328125-8.484376c-2.949219-2.191406-3.863281-6.203124-2.15625-9.453124l6.511719-12.53125-13.859375-2.703126c-3.605469-.6875-6.171875-3.894531-6.054688-7.5625l.441406-14.171874-13.679687 3.582031c-3.546875.941406-7.25-.835938-8.734375-4.191407l-5.757812-12.960937-10.777344 9.171875c-2.796875 2.398438-6.925782 2.394531-9.714844-.011719l-10.765625-9.160156-5.753906 12.953125c-1.480469 3.359375-5.1875 5.140625-8.738281 4.199219l-13.683594-3.585938.441406 14.15625c.128906 3.675781-2.441406 6.898438-6.058594 7.582031l-13.855468 2.699219 6.515624 12.539063c1.699219 3.253906.78125 7.257812-2.164062 9.449218l-11.320312 8.484376 11.335937 8.511718c2.941406 2.195313 3.847656 6.203125 2.140625 9.449219l-6.507812 12.53125 13.863281 2.699219c3.613281.691406 6.183593 3.917968 6.050781 7.59375l-.441406 14.144531 13.679687-3.585937c.628907-.164063 1.273438-.246094 1.917969-.246094 2.960938 0 5.636719 1.75 6.828125 4.457031l5.746094 12.941406 10.777343-9.171875c2.789063-2.386718 6.902344-2.390625 9.695313-.007812l10.785156 9.179687 5.753907-12.945312c1.484374-3.359375 5.195312-5.140625 8.746093-4.203125l13.675781 3.582031-.445312-14.152344c-.121094-3.667969 2.441406-6.882812 6.046875-7.582031l13.871094-2.699219-6.515625-12.542969c-1.703125-3.246093-.789063-7.25 2.152344-9.441406zm-58.910157 36.089844c-24.625 0-44.589843-19.964844-44.589843-44.589844s19.964843-44.589844 44.589843-44.589844 44.589844 19.964844 44.589844 44.589844c-.027344 24.613282-19.976563 44.558594-44.589844 44.589844zm0 0" data-original="#000000" class="active-path" data-old_color="#000000" fill="#285D99"/><path d="m275.519531 283.757812c-16.894531 0-30.589843 13.695313-30.589843 30.589844 0 16.894532 13.695312 30.589844 30.589843 30.589844s30.589844-13.695312 30.589844-30.589844c-.019531-16.886718-13.703125-30.570312-30.589844-30.589844zm0 0" data-original="#000000" class="active-path" data-old_color="#000000" fill="#285D99"/><path d="m195.804688 282.3125c-1.082032-2.03125-1.117188-4.457031-.09375-6.519531 1.035156-2.109375 3.003906-3.609375 5.3125-4.046875l16.96875-3.28125-.539063-17.320313c-.074219-2.359375.972656-4.617187 2.824219-6.085937 1.847656-1.46875 4.28125-1.980469 6.566406-1.378906l16.746094 4.386718 7.042968-15.847656c.957032-2.15625 2.878907-3.738281 5.179688-4.261719 2.300781-.523437 4.710938.066407 6.511719 1.59375l13.199219 11.226563 13.191406-11.222656c1.796875-1.53125 4.214844-2.125 6.519531-1.597657 2.304687.523438 4.222656 2.109375 5.179687 4.269531l7.039063 15.839844 16.757813-4.386718c2.28125-.601563 4.714843-.089844 6.558593 1.378906 1.847657 1.46875 2.894531 3.722656 2.824219 6.082031l-.542969 17.328125 16.972657 3.289062c2.3125.445313 4.28125 1.949219 5.3125 4.066407 1.023437 2.050781.984374 4.472656-.097657 6.492187l-4.144531 7.683594h59.242188v-290h-410v290h199.609374zm-157.46875-206.3125h173c3.867187 0 7 3.132812 7 7s-3.132813 7-7 7h-173c-3.867188 0-7-3.132812-7-7s3.132812-7 7-7zm0 42h333c3.867187 0 7 3.132812 7 7s-3.132813 7-7 7h-333c-3.867188 0-7-3.132812-7-7s3.132812-7 7-7zm0 43h333c3.867187 0 7 3.132812 7 7s-3.132813 7-7 7h-333c-3.867188 0-7-3.132812-7-7s3.132812-7 7-7zm-7 49c0-3.867188 3.132812-7 7-7h333c3.867187 0 7 3.132812 7 7s-3.132813 7-7 7h-333c-3.867188 0-7-3.132812-7-7zm0 0" data-original="#000000" class="active-path" data-old_color="#000000" fill="#285D99"/><path d="m249.542969 433.117188 6.121093 12.554687 12.578126-30.800781-6.316407-15.429688c-1.820312 1.355469-4.160156 1.808594-6.355469 1.234375-2.195312-.574219-4.011718-2.117187-4.933593-4.191406l-7.046875-15.863281-1.929688.507812-20.824218 50.550782 14.367187-4.65625c5.628906-1.796876 11.726563.792968 14.339844 6.09375zm0 0" data-original="#000000" class="active-path" data-old_color="#000000" fill="#285D99"/></g> </svg>
