<?xml version="1.0"?>
<svg xmlns="http://www.w3.org/2000/svg" height="512px" viewBox="-47 0 403 403.1" width="512px" class=""><g><path d="m259.351562 33-50-33-49.5 32.898438c-3.375 2.203124-7.730468 2.203124-11.101562 0l-49.398438-32.796876-50 33c-3.378906 2.21875-7.765624 2.179688-11.101562-.101562l-38.1992188-26v396.101562h308.5976568v-396.101562l-38.199219 26c-3.355469 2.25-7.742188 2.25-11.097657 0zm-24 319.601562h-162c-5.523437 0-10-4.480468-10-10 0-5.523437 4.476563-10 10-10h162c5.519532 0 10 4.476563 10 10 0 5.519532-4.480468 10-10 10zm-81-45c-64.617187 0-117-52.382812-117-117 0-64.617187 52.382813-117 117-117 64.617188 0 117 52.382813 117 117-.085937 64.582032-52.417968 116.914063-117 117zm0 0" data-original="#000000" class="active-path" data-old_color="#000000" fill="#9E9E9E"/><path d="m154.351562 93.601562c-53.574218 0-97 43.425782-97 97 0 53.570313 43.425782 97 97 97 53.570313 0 97-43.429687 97-97-.050781-53.550781-43.449218-96.949218-97-97zm25.898438 60.199219h13.699219c5.523437 0 10 4.476563 10 10 0 5.523438-4.476563 10-10 10h-13.699219c-4.492188 18.988281-20.921875 32.773438-40.398438 33.898438l38.398438 36.300781c2.984375 2.804688 3.945312 7.152344 2.417969 10.953125-1.523438 3.800781-5.222657 6.28125-9.316407 6.246094-2.558593 0-5.023437-.964844-6.902343-2.699219l-56.597657-53.5c-2.972656-2.824219-3.925781-7.175781-2.40625-10.984375 1.519532-3.8125 5.203126-6.3125 9.304688-6.316406h22.699219c9.386719.019531 17.914062-5.457031 21.800781-14h-44.398438c-5.523437 0-10-4.476563-10-10 0-5.523438 4.476563-10 10-10h44.398438c-3.921875-8.511719-12.425781-13.976563-21.800781-14h-22.699219c-5.523438 0-10-4.476563-10-10 0-5.523438 4.476562-10 10-10h79.199219c5.523437 0 10 4.476562 10 10 0 5.523437-4.476563 10-10 10h-19.699219c2.769531 4.332031 4.800781 9.097656 6 14.101562zm0 0" data-original="#000000" class="active-path" data-old_color="#000000" fill="#9E9E9E"/></g> </svg>
