<?xml version="1.0"?>
<svg xmlns="http://www.w3.org/2000/svg" xmlns:xlink="http://www.w3.org/1999/xlink" version="1.1" id="Capa_1" x="0px" y="0px" viewBox="0 0 512 512" style="enable-background:new 0 0 512 512;" xml:space="preserve" width="512px" height="512px" class=""><g><g>
	<g>
		<polygon points="472,202 487,202 457,162 427,202 442,202 442,412 427,412 457,452 487,412 472,412   " data-original="#000000" class="active-path" data-old_color="#000000" fill="#285D99"/>
	</g>
</g><g>
	<g>
		<polygon points="204,30 164,0 164,15 100,15 100,0 60,30 100,60 100,45 164,45 164,60   " data-original="#000000" class="active-path" data-old_color="#000000" fill="#285D99"/>
	</g>
</g><g>
	<g>
		<path d="M259.009,102H153.542L0.384,512h143.637l22.493-74.393h79.05L268.595,512h142.992L259.009,102z M190.649,338.027    l15.285-55.072l14.588,55.072H190.649z" data-original="#000000" class="active-path" data-old_color="#000000" fill="#285D99"/>
	</g>
</g><g>
	<g>
		<polygon points="432.433,482 439.703,501.537 443.597,512 512,512 512,482   " data-original="#000000" class="active-path" data-old_color="#000000" fill="#285D99"/>
	</g>
</g><g>
	<g>
		<polygon points="0,0 0,427.298 30,346.989 30,0   " data-original="#000000" class="active-path" data-old_color="#000000" fill="#285D99"/>
	</g>
</g><g>
	<g>
		<polygon points="234,0 234,72 259.009,72 264,72 264,0   " data-original="#000000" class="active-path" data-old_color="#000000" fill="#285D99"/>
	</g>
</g><g>
	<g>
		<polygon points="291.019,102 302.183,132 512,132 512,102   " data-original="#000000" class="active-path" data-old_color="#000000" fill="#285D99"/>
	</g>
</g></g> </svg>
