<?xml version="1.0"?>
<svg xmlns="http://www.w3.org/2000/svg" id="Layer_1" enable-background="new 0 0 60 52.999" height="512px" viewBox="0 0 60 52.999" width="512px"><g><path d="m43.03.001c-4.52 0-8.776 1.773-11.985 4.995-.551.553-1.479.554-2.03-.001-3.208-3.221-7.465-4.994-11.985-4.994-9.374 0-17 7.675-17 17.108 0 4.575 1.773 8.876 4.991 12.108l22.63 22.782c.641.645 1.494 1 2.403 1h.001c.91 0 1.763-.356 2.403-1.002l22.619-22.795c.047-.047.088-.098.124-.151 3.115-3.214 4.828-7.447 4.828-11.942.001-9.433-7.625-17.108-16.999-17.108zm9.195 26.374c-.196.197-.453.296-.711.296-.254 0-.509-.097-.704-.29-.392-.389-.395-1.021-.006-1.414 2.08-2.1 3.226-4.89 3.226-7.857 0-6.125-4.935-11.108-11-11.108-2.913 0-5.66 1.146-7.733 3.229-.39.389-1.023.392-1.414.003-.391-.391-.393-1.023-.003-1.415 2.451-2.461 5.701-3.816 9.15-3.816 7.168 0 13 5.881 13 13.108 0 3.496-1.352 6.787-3.805 9.264z" data-original="#000000" class="active-path" data-old_color="#000000" fill="#285D99"/></g> </svg>
