<?xml version="1.0"?>
<svg xmlns="http://www.w3.org/2000/svg" height="512px" viewBox="0 -24 448 448" width="512px" class=""><g><path d="m152 384h144v16h-144zm0 0" data-original="#000000" class="active-path" data-old_color="#000000" fill="#285D99"/><path d="m136 120c0 8.835938-7.164062 16-16 16s-16-7.164062-16-16 7.164062-16 16-16 16 7.164062 16 16zm0 0" data-original="#000000" class="active-path" data-old_color="#000000" fill="#285D99"/><path d="m191.0625 320-6 48h77.875l-6-48zm0 0" data-original="#000000" class="active-path" data-old_color="#000000" fill="#285D99"/><path d="m165.984375 106.289062c-.933594-3.160156-2.191406-6.214843-3.753906-9.113281-1.6875-3.113281-1.128907-6.96875 1.378906-9.472656l12.957031-12.960937-11.308594-11.308594-12.960937 12.957031c-2.503906 2.507813-6.359375 3.066406-9.472656 1.378906-2.898438-1.5625-5.953125-2.820312-9.113281-3.753906-3.386719-1.011719-5.710938-4.128906-5.710938-7.664063v-18.351562h-16v18.351562c0 3.535157-2.324219 6.652344-5.710938 7.664063-3.160156.933594-6.214843 2.191406-9.113281 3.753906-3.113281 1.6875-6.96875 1.128907-9.472656-1.378906l-12.960937-12.957031-11.308594 11.308594 12.957031 12.960937c2.507813 2.503906 3.066406 6.359375 1.378906 9.472656-1.5625 2.898438-2.820312 5.953125-3.753906 9.113281-1.011719 3.386719-4.128906 5.710938-7.664063 5.710938h-18.351562v16h18.351562c3.535157 0 6.652344 2.324219 7.664063 5.710938.933594 3.160156 2.191406 6.214843 3.753906 9.113281 1.6875 3.113281 1.128907 6.96875-1.378906 9.472656l-12.957031 12.960937 11.308594 11.308594 12.960937-12.957031c2.503906-2.507813 6.359375-3.066406 9.472656-1.378906 2.898438 1.5625 5.953125 2.820312 9.113281 3.753906 3.386719 1.011719 5.710938 4.128906 5.710938 7.664063v18.351562h16v-18.351562c0-3.535157 2.324219-6.652344 5.710938-7.664063 3.160156-.933594 6.214843-2.191406 9.113281-3.753906 3.113281-1.6875 6.96875-1.128907 9.472656 1.378906l12.960937 12.957031 11.308594-11.308594-12.957031-12.960937c-2.507813-2.503906-3.066406-6.359375-1.378906-9.472656 1.5625-2.898438 2.820312-5.953125 3.753906-9.113281 1.011719-3.386719 4.128906-5.710938 7.664063-5.710938h18.351562v-16h-18.351562c-3.535157 0-6.652344-2.324219-7.664063-5.710938zm-45.984375 45.710938c-17.671875 0-32-14.328125-32-32s14.328125-32 32-32 32 14.328125 32 32-14.328125 32-32 32zm0 0" data-original="#000000" class="active-path" data-old_color="#000000" fill="#285D99"/><path d="m448 24c0-13.253906-10.746094-24-24-24h-400c-13.253906 0-24 10.746094-24 24v216h448zm-104 0h32v16h-32zm-32 0h16v16h-16zm0 32h64v16h-64zm0 96h48v16h-48zm-104-16c0 4.417969-3.582031 8-8 8h-20.671875l-.40625.984375 14.613281 14.617187c3.125 3.121094 3.125 8.1875 0 11.308594l-22.625 22.625c-3.121094 3.125-8.1875 3.125-11.308594 0l-14.617187-14.613281-.984375.40625v20.671875c0 4.417969-3.582031 8-8 8h-32c-4.417969 0-8-3.582031-8-8v-20.671875l-.984375-.40625-14.617187 14.613281c-3.121094 3.125-8.1875 3.125-11.308594 0l-22.625-22.625c-3.125-3.121094-3.125-8.1875 0-11.308594l14.613281-14.617187-.40625-.984375h-20.671875c-4.417969 0-8-3.582031-8-8v-32c0-4.417969 3.582031-8 8-8h20.671875l.40625-.984375-14.613281-14.617187c-3.125-3.121094-3.125-8.1875 0-11.308594l22.625-22.625c3.121094-3.125 8.1875-3.125 11.308594 0l14.617187 14.613281.984375-.40625v-20.671875c0-4.417969 3.582031-8 8-8h32c4.417969 0 8 3.582031 8 8v20.671875l.984375.40625 14.617187-14.613281c3.121094-3.125 8.1875-3.125 11.308594 0l22.625 22.625c3.125 3.121094 3.125 8.1875 0 11.308594l-14.613281 14.617187.40625.984375h20.671875c4.417969 0 8 3.582031 8 8zm88 48h-48c-2.121094 0-4.15625-.84375-5.65625-2.34375l-24-24 11.3125-11.3125 21.65625 21.65625h44.6875zm0-128h-44.6875l-21.65625 21.65625-11.3125-11.3125 24-24c1.5-1.5 3.535156-2.34375 5.65625-2.34375h48zm32 144h-16v-16h16zm56 0h-40v-16h40zm0 0" data-original="#000000" class="active-path" data-old_color="#000000" fill="#285D99"/><path d="m448 256h-448v24c0 13.253906 10.746094 24 24 24h400c13.253906 0 24-10.746094 24-24zm-34.320312 29.679688c-2.289063 2.308593-5.746094 3-8.746094 1.753906-3.003906-1.246094-4.953125-4.183594-4.933594-7.433594 0-4.417969 3.582031-8 8-8s8 3.582031 8 8c.019531 2.128906-.816406 4.171875-2.320312 5.679688zm0 0" data-original="#000000" class="active-path" data-old_color="#000000" fill="#285D99"/></g> </svg>
