<?xml version="1.0"?>
<svg xmlns="http://www.w3.org/2000/svg" height="512px" viewBox="0 0 480 480" width="512px"><g><path d="m104 280h272c13.253906 0 24-10.746094 24-24v-128c0-13.253906-10.746094-24-24-24h-272c-13.253906 0-24 10.746094-24 24v128c0 13.253906 10.746094 24 24 24zm-8-152c0-4.417969 3.582031-8 8-8h272c4.417969 0 8 3.582031 8 8v128c0 4.417969-3.582031 8-8 8h-272c-4.417969 0-8-3.582031-8-8zm0 0" data-original="#000000" class="active-path" data-old_color="#000000" fill="#FFFFFF"/><path d="m264 222.527344v17.472656h16v-17.472656c9.585938-3.339844 16.007812-12.378906 16.007812-22.527344s-6.421874-19.1875-16.007812-22.527344v-33.472656h-16v33.472656c-9.585938 3.339844-16.007812 12.378906-16.007812 22.527344s6.421874 19.1875 16.007812 22.527344zm8-30.527344c4.417969 0 8 3.582031 8 8s-3.582031 8-8 8-8-3.582031-8-8 3.582031-8 8-8zm0 0" data-original="#000000" class="active-path" data-old_color="#000000" fill="#FFFFFF"/><path d="m328 206.527344v33.472656h16v-33.472656c9.585938-3.339844 16.007812-12.378906 16.007812-22.527344s-6.421874-19.1875-16.007812-22.527344v-17.472656h-16v17.472656c-9.585938 3.339844-16.007812 12.378906-16.007812 22.527344s6.421874 19.1875 16.007812 22.527344zm8-30.527344c4.417969 0 8 3.582031 8 8s-3.582031 8-8 8-8-3.582031-8-8 3.582031-8 8-8zm0 0" data-original="#000000" class="active-path" data-old_color="#000000" fill="#FFFFFF"/><path d="m200 206.527344v33.472656h16v-33.472656c9.585938-3.339844 16.007812-12.378906 16.007812-22.527344s-6.421874-19.1875-16.007812-22.527344v-17.472656h-16v17.472656c-9.585938 3.339844-16.007812 12.378906-16.007812 22.527344s6.421874 19.1875 16.007812 22.527344zm8-30.527344c4.417969 0 8 3.582031 8 8s-3.582031 8-8 8-8-3.582031-8-8 3.582031-8 8-8zm0 0" data-original="#000000" class="active-path" data-old_color="#000000" fill="#FFFFFF"/><path d="m136 222.527344v17.472656h16v-17.472656c9.585938-3.339844 16.007812-12.378906 16.007812-22.527344s-6.421874-19.1875-16.007812-22.527344v-33.472656h-16v33.472656c-9.585938 3.339844-16.007812 12.378906-16.007812 22.527344s6.421874 19.1875 16.007812 22.527344zm8-30.527344c4.417969 0 8 3.582031 8 8s-3.582031 8-8 8-8-3.582031-8-8 3.582031-8 8-8zm0 0" data-original="#000000" class="active-path" data-old_color="#000000" fill="#FFFFFF"/><path d="m440 0h-400c-22.082031.0273438-39.9726562 17.917969-40 40v304c.0273438 22.082031 17.917969 39.972656 40 40h134.9375l-6 48h-16.9375c-13.253906 0-24 10.746094-24 24s10.746094 24 24 24h176c13.253906 0 24-10.746094 24-24s-10.746094-24-24-24h-16.9375l-6-48h134.9375c22.082031-.027344 39.972656-17.917969 40-40v-304c-.027344-22.082031-17.917969-39.9726562-40-40zm-400 16h400c13.253906 0 24 10.746094 24 24v24h-448v-24c0-13.253906 10.746094-24 24-24zm424 64v224h-448v-224zm-128 376c0 4.417969-3.582031 8-8 8h-176c-4.417969 0-8-3.582031-8-8s3.582031-8 8-8h176c4.417969 0 8 3.582031 8 8zm-41.0625-24h-109.875l6-48h97.875zm145.0625-64h-400c-13.253906 0-24-10.746094-24-24v-24h448v24c0 13.253906-10.746094 24-24 24zm0 0" data-original="#000000" class="active-path" data-old_color="#000000" fill="#FFFFFF"/><path d="m416 336h16v16h-16zm0 0" data-original="#000000" class="active-path" data-old_color="#000000" fill="#FFFFFF"/><path d="m48 32h16v16h-16zm0 0" data-original="#000000" class="active-path" data-old_color="#000000" fill="#FFFFFF"/><path d="m80 32h16v16h-16zm0 0" data-original="#000000" class="active-path" data-old_color="#000000" fill="#FFFFFF"/><path d="m112 32h16v16h-16zm0 0" data-original="#000000" class="active-path" data-old_color="#000000" fill="#FFFFFF"/></g> </svg>
