<?xml version="1.0"?>
<svg xmlns="http://www.w3.org/2000/svg" xmlns:xlink="http://www.w3.org/1999/xlink" version="1.1" id="Capa_1" x="0px" y="0px" viewBox="0 0 512 512" style="enable-background:new 0 0 512 512;" xml:space="preserve" width="512px" height="512px" class=""><g><g>
	<g>
		<g>
			<path d="M266.667,42.667h-21.333c-5.896,0-10.667,4.771-10.667,10.667c0,5.896,4.771,10.667,10.667,10.667h21.333     c5.896,0,10.667-4.771,10.667-10.667C277.333,47.438,272.563,42.667,266.667,42.667z" data-original="#000000" class="active-path" data-old_color="#000000" fill="#285D99"/>
			<path d="M224,469.333h64c5.896,0,10.667-4.771,10.667-10.667S293.896,448,288,448h-64c-5.896,0-10.667,4.771-10.667,10.667     S218.104,469.333,224,469.333z" data-original="#000000" class="active-path" data-old_color="#000000" fill="#285D99"/>
			<circle cx="373.333" cy="53.333" r="10.667" data-original="#000000" class="active-path" data-old_color="#000000" fill="#285D99"/>
			<path d="M384,0H128c-23.521,0-42.667,19.135-42.667,42.667v426.667C85.333,492.865,104.479,512,128,512h256     c23.521,0,42.667-19.135,42.667-42.667V42.667C426.667,19.135,407.521,0,384,0z M405.333,469.333     c0,11.76-9.563,21.333-21.333,21.333H128c-11.771,0-21.333-9.573-21.333-21.333v-42.667h298.667V469.333z M405.333,405.333     H106.667V42.667c0-11.76,9.563-21.333,21.333-21.333h256c11.771,0,21.333,9.573,21.333,21.333V405.333z" data-original="#000000" class="active-path" data-old_color="#000000" fill="#285D99"/>
			<path d="M224,128h-64c-5.896,0-10.667,4.771-10.667,10.667v64c0,5.896,4.771,10.667,10.667,10.667h64     c5.896,0,10.667-4.771,10.667-10.667v-64C234.667,132.771,229.896,128,224,128z M213.333,192h-42.667v-42.667h42.667V192z" data-original="#000000" class="active-path" data-old_color="#000000" fill="#285D99"/>
			<path d="M352,128h-64c-5.896,0-10.667,4.771-10.667,10.667v64c0,5.896,4.771,10.667,10.667,10.667h64     c5.896,0,10.667-4.771,10.667-10.667v-64C362.667,132.771,357.896,128,352,128z M341.333,192h-42.667v-42.667h42.667V192z" data-original="#000000" class="active-path" data-old_color="#000000" fill="#285D99"/>
			<path d="M224,256h-64c-5.896,0-10.667,4.771-10.667,10.667v64c0,5.896,4.771,10.667,10.667,10.667h64     c5.896,0,10.667-4.771,10.667-10.667v-64C234.667,260.771,229.896,256,224,256z M213.333,320h-42.667v-42.667h42.667V320z" data-original="#000000" class="active-path" data-old_color="#000000" fill="#285D99"/>
			<path d="M352,256h-64c-5.896,0-10.667,4.771-10.667,10.667v64c0,5.896,4.771,10.667,10.667,10.667h64     c5.896,0,10.667-4.771,10.667-10.667v-64C362.667,260.771,357.896,256,352,256z M341.333,320h-42.667v-42.667h42.667V320z" data-original="#000000" class="active-path" data-old_color="#000000" fill="#285D99"/>
		</g>
	</g>
</g></g> </svg>
